Coordinates
version=1
nRows=16
nColumns=36
inDegrees=yes

Units are S.I. units (second, meters, Newtons, ...)
If the header above contains a line with 'inDegrees', this indicates whether rotational values are in degrees (yes) or radians (no).

endheader
time	pelvis_tilt	pelvis_list	pelvis_rotation	pelvis_tx	pelvis_ty	pelvis_tz	hip_flexion_r	hip_adduction_r	hip_rotation_r	knee_angle_r	knee_angle_r_beta	ankle_angle_r	subtalar_angle_r	mtp_angle_r	hip_flexion_l	hip_adduction_l	hip_rotation_l	knee_angle_l	knee_angle_l_beta	ankle_angle_l	subtalar_angle_l	mtp_angle_l	lumbar_extension	lumbar_bending	lumbar_rotation	arm_flex_r	arm_add_r	arm_rot_r	elbow_flex_r	pro_sup_r	arm_flex_l	arm_add_l	arm_rot_l	elbow_flex_l	pro_sup_l
      1.63333330	      9.92818120	    -13.20364354	      0.53299822	      0.58896252	      1.04126881	     -0.12802608	     24.98182975	     14.94786441	     -2.74475601	    120.66842244	      2.10606127	    -15.48771921	    -23.19697121	     -7.49895401	     -6.77175671	     -7.64361446	     -1.20053395	     11.58577852	      0.20220998	     11.85254567	      6.38305756	     -7.49895401	    -15.00336440	     13.59387774	      0.77435054	      5.46987126	     -8.72394015	     12.06464776	     25.68471438	     68.81428052	      5.57966708	     -4.95510712	     19.25113816	     21.16671466	     64.71212939
      1.65000000	     10.34905730	    -13.81092823	      0.28911270	      0.58783715	      1.03908825	     -0.12886975	     24.42400681	     15.50281448	     -3.45802628	    123.02769942	      2.14723843	    -15.46594448	    -24.94204476	     -7.49900372	     -7.20877244	     -8.16919918	     -1.28743749	     11.71170539	      0.20440782	     12.03241063	      5.31485970	     -7.49900372	    -15.65913133	     14.22706177	      1.41170299	      5.71065716	     -8.99440359	     12.19735571	     25.36354742	     68.82315196	      5.98019397	     -4.59094690	     19.25242506	     20.90752951	     64.72859928
      1.66666670	     10.58448952	    -14.18471814	      0.31019635	      0.58774729	      1.04367536	     -0.13041302	     23.93075574	     15.75981500	     -4.15100844	    124.27199472	      2.16895548	    -15.19209370	    -26.29289296	     -7.49902327	     -7.60642696	     -8.39048083	     -0.82484072	     11.54471373	      0.20149327	     12.03424595	      4.42458234	     -7.49902327	    -15.96531426	     14.66210197	      1.55368811	      5.81584193	     -9.17035870	     12.29793895	     25.28620927	     68.97207571	      6.21572170	     -4.34207895	     19.37674746	     20.63310299	     64.86482903
      1.68333330	     10.87556199	    -14.41024719	      0.55148884	      0.58469731	      1.05017836	     -0.13101249	     23.97349914	     15.82418387	     -4.35041974	    125.63711726	      2.19278136	    -14.80855238	    -25.87813172	     -7.49917538	     -7.76082739	     -8.57589056	     -0.33272209	     11.66791141	      0.20364347	     11.54552463	      3.54989230	     -7.49917538	    -16.42382691	     14.91429905	      1.53090783	      5.93311993	     -9.22617124	     12.32584616	     25.38142196	     68.64159178	      6.60560153	     -4.28422507	     19.81019003	     20.43652965	     64.89448065
      1.70000000	     11.02984807	    -14.64309953	      0.69140211	      0.58193914	      1.05486057	     -0.13002912	     24.38124589	     15.88810954	     -4.64259257	    126.58159921	      2.20926568	    -14.88983025	    -25.74142575	     -7.49917764	     -7.80156044	     -8.81579984	     -0.17907611	     11.58795006	      0.20224788	     11.30776369	      3.60126214	     -7.49917764	    -16.75073573	     15.07987433	      1.50371515	      6.03713992	     -9.20387778	     12.32293479	     25.40927703	     68.65825391	      6.82705838	     -4.26979597	     19.82347990	     20.50821672	     64.91655179
      1.71666670	     11.22600662	    -14.83157098	      0.81491523	      0.58404032	      1.05086126	     -0.12961808	     24.73359607	     15.91202532	     -4.95314704	    127.68482954	      2.22852068	    -14.80828451	    -25.72653110	     -7.49918000	     -8.01402214	     -9.06043943	      0.05626990	     11.49623358	      0.20064713	     10.98836300	      3.64275928	     -7.49918000	    -17.01243736	     15.24092492	      1.47058937	      6.13855562	     -9.21013018	     12.31153340	     25.42309157	     68.68002856	      6.99920505	     -4.23765278	     19.85439224	     20.57040833	     64.95017999
      1.73333330	     11.50468713	    -14.79810700	      0.98370158	      0.58501090	      1.04853410	     -0.12955574	     24.80754657	     15.73040427	     -5.09713918	    128.51930297	      2.24308499	    -14.31559259	    -25.35720027	     -7.49959852	     -8.31135952	     -9.03863454	      0.61047890	     11.47926891	      0.20035104	     10.62369379	      3.00402614	     -7.49959852	    -17.29168581	     15.14920949	      1.51724899	      6.13046877	     -9.19553979	     12.57374920	     25.37831460	     67.21121695	      7.23524052	     -4.28169379	     20.50351301	     20.60821854	     64.44992995
      1.75000000	     11.59829849	    -14.82714176	      1.15153566	      0.58197204	      1.04804600	     -0.13014906	     25.32420051	     15.64551560	     -5.21786087	    129.00702359	      2.25159732	    -13.93253060	    -24.92089329	     -7.49961644	     -8.24590915	     -9.07644923	      0.99870252	     11.58067316	      0.20212088	     10.62745036	      2.81687468	     -7.49961644	    -17.47222159	     15.15806762	      1.46458414	      6.18050944	     -9.13714415	     12.42280434	     25.45838049	     67.18961617	      7.42287537	     -4.33060710	     20.57350660	     20.82064567	     64.50032291
      1.76666670	     11.68537489	    -14.76342348	      1.36861899	      0.58278296	      1.04791982	     -0.12917795	     25.41542101	     15.57494070	     -5.62583711	    128.75046425	      2.24711951	    -13.46722698	    -25.18031378	     -7.49963206	     -8.35714133	     -9.06557979	      1.16808553	     11.44673440	      0.19978320	     10.35737624	      2.95107761	     -7.49963206	    -17.47938500	     15.03906807	      1.35288342	      6.11260138	     -9.04845694	     12.26414979	     25.34705120	     67.15543217	      7.56778585	     -4.36322794	     20.66474144	     20.79640907	     64.54847068
      1.78333330	     11.88536247	    -14.86338358	      1.52468799	      0.58386675	      1.04744104	     -0.13015704	     24.73234238	     15.80147510	     -6.34095910	    127.70817222	      2.22892809	    -12.58723640	    -26.67120803	     -7.49971601	     -8.62672885	     -9.15179320	      1.05527920	     11.27895469	      0.19685490	     10.35646503	      3.13194246	     -7.49971601	    -17.49774386	     15.17875019	      1.29464442	      6.11549725	     -9.03987663	     11.98672404	     25.19081272	     67.11831297	      7.73280576	     -4.30839891	     21.05529778	     20.58478143	     64.69923657
      1.80000000	     12.05331866	    -14.74408493	      1.70083530	      0.58284925	      1.04541573	     -0.13117312	     24.32649922	     15.62938392	     -6.74332904	    126.59796816	      2.20955137	    -12.73765029	    -27.98902607	     -7.49976564	     -8.81411743	     -9.05208707	      1.11495599	     11.25309073	      0.19640348	     10.49822894	      3.28642037	     -7.49976564	    -17.62215041	     15.07609471	      1.29139090	      6.04239683	     -9.04347913	     11.71403666	     25.31574097	     67.32038830	      7.89036135	     -4.32225458	     21.43755003	     20.68332084	     64.95874231
      1.81666670	     12.13687239	    -14.45991254	      1.95883096	      0.58262581	      1.04870152	     -0.13158438	     23.73188875	     15.33208332	     -6.99083073	    124.80996556	      2.17834484	    -12.73168676	    -29.13994786	     -7.49977624	     -8.86324013	     -8.74579194	      1.22391951	     11.24277034	      0.19622336	     10.16405478	      3.24847848	     -7.49977624	    -17.61198489	     14.75146248	      1.24485034	      5.88031772	     -8.99525189	     11.57210660	     25.37974737	     67.26619570	      8.00763529	     -4.34816463	     21.50178381	     20.89176092	     64.95700263
      1.83333330	     12.56380164	    -14.21838959	      2.33002000	      0.58350690	      1.04782130	     -0.13262768	     22.84154973	     15.12859220	     -7.12835110	    122.85578624	      2.14423797	    -12.19185858	    -29.87215485	     -7.49982582	     -9.34635883	     -8.54684222	      1.18118860	     11.13122695	      0.19427656	     10.33969192	      3.76678299	     -7.49982582	    -17.93922922	     14.55279227	      1.14212545	      5.79926060	     -8.91063359	     10.97822820	     25.46862038	     68.17021898	      8.26849563	     -4.50010648	     22.38366391	     20.92219077	     65.72945229
      1.85000000	     12.80722850	    -13.77013642	      2.86319707	      0.58578354	      1.04840049	     -0.13230717	     22.60444248	     14.62098203	     -7.05297854	    120.63587025	      2.10549313	    -12.28462058	    -29.64060926	     -7.49985010	     -9.68718335	     -8.16440414	      1.42790018	     10.88567681	      0.18999090	     10.11713997	      4.17617267	     -7.49985010	    -17.98013784	     14.07544851	      0.81287793	      5.62820027	     -8.65975856	     10.42142437	     25.45212757	     67.83220644	      8.32728648	     -4.62639026	     22.19662323	     21.12781240	     65.46455935
      1.86666670	     13.06805607	    -13.35052278	      3.20295276	      0.58957790	      1.05051277	     -0.13444233	     22.32282398	     14.25420485	     -6.75642373	    117.91498771	      2.05800477	    -13.28196975	    -29.88163454	     -7.49985616	    -10.31179279	     -7.73133719	      1.43707349	     10.34269767	      0.18051413	     10.09995249	      5.01829187	     -7.49985616	    -17.85386831	     13.65536028	      0.41736403	      5.43812188	     -8.51712852	     10.23838713	     25.42475744	     68.19639839	      8.18309016	     -4.79943930	     22.40144852	     21.31613301	     65.73834004
      1.88333330	     13.08875333	    -12.72968695	      3.61820448	      0.58431390	      1.04523846	     -0.13147450	     23.32984372	     13.60280567	     -6.19404060	    115.24361882	      2.01138059	    -14.56175131	    -29.10196917	     -7.49986217	    -10.19900015	     -7.21251535	      1.66756331	     10.38133888	      0.18118854	     10.27649969	      5.46255495	     -7.49986217	    -17.86503823	     12.95622410	      0.00106624	      5.39586333	     -8.23098192	     10.04388150	     25.63568488	     68.28750567	      8.20019326	     -5.10434461	     22.41344293	     21.69196352	     65.81126687
